<svg id="Layer_1" enable-background="new 0 0 511.916 511.916" height="512" viewBox="0 0 511.916 511.916" width="512" xmlns="http://www.w3.org/2000/svg"><path d="m505.315 73.592c-1.744-4.826-5.835-8.427-10.844-9.543-5.011-1.116-10.241.406-13.87 4.034l-31.086 31.087h-18.691l-18.079-18.079v-18.691l31.086-31.086c3.629-3.629 5.15-8.861 4.034-13.87s-4.717-9.1-9.543-10.844c-40.57-14.659-86.481-4.436-116.967 26.052-24.352 24.351-35.977 58.328-31.916 92.244l-164.543 164.542c-33.918-4.059-67.895 7.567-92.245 31.917-30.485 30.486-40.711 76.398-26.05 116.968 1.744 4.826 5.834 8.427 10.844 9.543 5.007 1.114 10.241-.405 13.87-4.034l31.086-31.087h18.69l18.08 18.079v18.691l-31.086 31.086c-3.629 3.629-5.151 8.861-4.034 13.87s4.716 9.1 9.543 10.844c12.297 4.443 25.083 6.601 37.783 6.601 29.2-.001 57.94-11.407 79.186-32.652 24.351-24.352 35.976-58.328 31.916-92.244l164.541-164.543c33.911 4.049 67.896-7.568 92.243-31.917 30.486-30.484 40.712-76.397 26.052-116.968zm-47.264 95.755c-19.225 19.226-46.659 27.605-73.393 22.413-4.899-.955-9.941.593-13.466 4.118l-175.313 175.313c-3.525 3.525-5.069 8.571-4.119 13.466 5.191 26.731-3.188 54.169-22.413 73.394-16.076 16.076-38.021 24.416-60.135 23.85l15.565-15.565c2.813-2.812 4.394-6.628 4.394-10.606v-31.117c0-3.979-1.581-7.794-4.394-10.606l-26.866-26.866c-2.813-2.813-6.628-4.394-10.606-4.394h-31.118c-3.979 0-7.793 1.58-10.607 4.394l-15.565 15.565c-.6-22.117 7.773-44.06 23.849-60.136 19.225-19.225 46.661-27.604 73.394-22.413 4.892.952 9.941-.593 13.466-4.118l175.313-175.312c3.525-3.525 5.068-8.571 4.118-13.466-5.19-26.731 3.188-54.169 22.413-73.394 16.075-16.077 38.029-24.433 60.135-23.85l-15.564 15.565c-2.813 2.812-4.394 6.628-4.394 10.606v31.117c0 3.979 1.58 7.794 4.394 10.606l26.866 26.866c2.812 2.813 6.628 4.394 10.606 4.394h31.117c3.979 0 7.794-1.58 10.606-4.394l15.565-15.565c.6 22.117-7.772 44.059-23.848 60.135z"/></svg>